<svg id="Layer_1" data-name="Layer 1" xmlns="http://www.w3.org/2000/svg" xmlns:xlink="http://www.w3.org/1999/xlink" viewBox="0 0 754.97947 255.54126"><defs><style>.cls-1{fill:none;}.cls-2{clip-path:url(#clip-path);}.cls-3{fill:#d2e4f4;}.cls-4{fill:#43af5a;}.cls-5{fill:#fc0;}.cls-6{fill:#999;}.cls-7{fill:#5602a4;}</style><clipPath id="clip-path"><path class="cls-1" d="M43.28023,198.53357c1.79094,2.26222,3.67613,4.4302,5.56133,6.50391C46.95636,202.96379,45.07117,200.79581,43.28023,198.53357Zm-3.67613-4.90151c-.65982-.9426-1.22537-1.79093-1.88519-2.73353A28.05344,28.05344,0,0,0,39.6041,193.63206Zm-7.44652-11.971c1.4139,1.69668,3.29909,1.8852,5.84411,1.03687,6.7867-2.45076,10.55709-7.54078,10.55709-15.08157V100.69194a37.33329,37.33329,0,0,1,6.31541-20.8314c10.46283-16.11843,30.72868-20.73716,47.884-13.8562A34.96353,34.96353,0,0,1,123.87233,89.098a56.01158,56.01158,0,0,1,2.168,16.21267c0,18.66344-.18852,37.32688-.09426,56.08456,0,7.258,4.9015,11.49969,10.93414,9.803,3.67612-.94259,6.40966-5.18428,6.3154-10.46284-.09427-11.49968-.4713-22.90512-.4713-34.40481,0-9.61449,1.03686-19.13473,6.97522-27.33533,9.52024-13.19637,22.71661-18.00361,38.26947-15.4586,13.66766,2.168,23.28216,10.08579,28.46644,23.09364a44.84727,44.84727,0,0,1,3.11058,16.02416c.09426,15.27008,0,30.4459,0,45.716,0,6.3154,2.63927,10.74561,8.20059,13.66767,2.8278,1.41389,5.09,1.41389,6.7867-.65982-.56556,1.03686-1.13111,2.07371-1.79093,3.11058A114.92253,114.92253,0,1,0,33.76,184.58313,28.94964,28.94964,0,0,1,32.15758,181.66107Zm190.78176,17.43806c-2.26223,2.82779-4.713,5.56132-7.16375,8.10635C218.22635,204.66045,220.67711,201.92692,222.93934,199.09913Zm4.14744-5.46707c.28278-1.13111-.4713-1.79093-2.26223-2.45076-11.6882-4.05317-15.4586-13.29063-15.74138-24.6018-.377-15.74138.75408-31.38851,0-47.12989-.56556-12.72506-8.86041-22.2453-22.71661-25.82717-9.89727-2.63928-23.56494,3.29909-29.22052,12.81932-3.48761,5.84411-4.61873,12.25377-4.61873,18.94622,0,13.19637.28279,26.39274,0,39.5891-.18851,9.23746-7.91781,16.4012-17.15527,16.58973-11.49969.28278-19.13474-6.59819-19.32325-18.19214-.28278-13.95045.09426-27.9009.09426-41.94559,0-7.258.28278-14.516-.4713-21.67975C114.54063,87.58982,108.131,78.44662,96.3485,75.05327c-11.594-3.39335-22.81087-1.60241-31.29425,8.38913-5.56132,6.40966-7.16374,14.23322-7.16374,22.33956-.09426,20.54863.18852,41.09727.28278,61.74015.09426,12.06525-4.61873,20.54863-16.684,24.1305-1.13112.377-2.168.56557-2.07371,2.07372v.09426c1.22537,1.69668,2.45075,3.29909,3.67613,4.90151,2.168,1.31963,4.713,1.88519,6.69244,1.13111,12.25377-5.18429,18.56918-14.61026,19.04047-27.71236.377-11.594.09426-23.18791.09426-34.87612h.09426c0-11.49968-.09426-22.90512,0-34.40481.28278-11.31117,8.10634-19.229,18.56917-19.13474,10.18006.09426,17.72084,8.10634,17.72084,19.13474,0,13.95045-.28279,27.99515-.09426,41.94559.09426,9.33172-1.03686,18.75769,1.88519,28.08942a27.50106,27.50106,0,0,0,23.1879,19.13473c14.61027,1.69668,25.73292-6.22115,29.59756-14.61026,4.43021-9.61449,3.95891-19.88882,3.77039-30.06886-.18851-9.61449-.94259-19.13474.09427-28.655a17.82729,17.82729,0,0,1,12.44229-14.516c7.16374-1.88519,14.98729.56556,19.04047,6.03263,3.39335,4.43021,4.4302,9.61449,4.4302,14.98731-.09426,13.85618-.377,27.61811-.4713,41.47429-.09426,12.72507,3.29909,23.84772,15.08156,30.91721,4.90151,2.92206,6.40967,3.67612,8.6719,1.50816,2.168-2.63928,4.14742-5.3728,6.03262-8.2006C228.31214,191.84113,227.65233,192.78373,227.08678,193.63206ZM229.349,190.333c.4713-.75408,1.03686-1.50816,1.50816-2.35649C230.2916,188.82482,229.82031,189.57889,229.349,190.333Zm-16.49546,19.7003c.4713-.9426-.09427-1.79093-1.8852-2.82779a42.307,42.307,0,0,1-15.64712-14.61027c-4.336-7.06948-5.84411-14.893-6.03262-22.90512-.28278-14.893,0-29.78609,0-44.77339a21.8608,21.8608,0,0,0-.56557-5.56133c-.75408-3.48761-3.39335-5.3728-6.59818-5.93837s-5.56132,1.4139-7.35226,3.95891c-1.60242,2.35649-1.69668,4.99577-1.69668,7.635,0,13.00785.28278,26.0157,0,39.1178-.4713,20.73715-14.139,35.34741-34.6876,37.60964-22.52808,2.45076-41.003-13.19637-42.60541-35.72444-.75408-11.02839-.18852-21.96253.09426-32.89665,0-9.1432-.09426-18.19214,0-27.33534a17.18112,17.18112,0,0,0-1.97946-8.10633,7.44954,7.44954,0,0,0-13.66766.94259,18.37362,18.37362,0,0,0-.9426,6.03263c.09426,14.61026.18852,29.22053.377,43.83079a222.8094,222.8094,0,0,1-.75408,26.29847c-1.60241,15.27008-9.04894,26.39273-22.90512,33.08517-2.3565,1.13111-2.07372,2.168-1.13112,3.29909A114.93806,114.93806,0,0,0,215.21,207.58249,19.181,19.181,0,0,1,212.85355,210.03327Zm19.98307-25.35589c-.56557.9426-1.13112,1.8852-1.69668,2.73353C231.79977,186.46833,232.27107,185.62,232.83662,184.67738Zm-177.86818,26.487c-2.07371-1.8852-4.05317-3.95891-6.03262-6.03262C50.821,207.20548,52.89473,209.18492,54.96844,211.16437ZM35.45667,187.41093c-.4713-.75409-.84834-1.50817-1.31963-2.168C34.51407,185.90276,34.98537,186.65684,35.45667,187.41093Zm1.8852,2.922c-.4713-.75408-.9426-1.4139-1.4139-2.168C36.39927,188.91907,36.87057,189.57889,37.34187,190.333Z"/></clipPath></defs><g class="cls-2"><path class="cls-3" d="M20.38627,82.02909l-34.15563,110.52c18.08231-14.60657,70.29891-62.19394,88.26924-76.9658,4.79776-3.90929,7.99629-3.90929,12.43867.71079,17.59187,18.12494,35.89449,35.71679,53.664,53.664,3.73156,3.9093,6.75243,3.9093,10.83943.71078,9.77326-7.81861,19.90188-15.10413,29.49748-23.10042,5.15315-4.26469,9.06249-4.087,14.21564-.17771,16.90069,12.67679,48.48764,51.43436,65.71169,63.77355L246.34747,1.38554H20.29566V49.78268H-26.83275V82.03087h47.219Z"/><path class="cls-4" d="M210.58134,223.4093l36.59008-7.80109v-42.455c-17.224-12.33918-34.2917-24.69079-51.19232-37.3676-5.15316-3.90929-9.06247-4.087-14.21564.17771-9.59556,7.99629-19.72422,15.28181-29.49748,23.10042-4.087,3.19852-7.10783,3.19852-10.83943-.71078-17.76956-17.94724-36.07218-35.53909-53.664-53.664-4.44239-4.62008-7.64093-4.62008-12.43868-.71079C57.35166,118.75,39.29244,133.35119,21.21017,147.95775V215.61l123.47011,45.83727,21.68044-1.50755h32.18955l5.58421-33.09206Z"/><path class="cls-5" d="M165.17375,109.37514a35.89558,35.89558,0,1,0-36.24987-35.89449A35.89557,35.89557,0,0,0,165.17375,109.37514Z"/></g><path class="cls-6" d="M320.33412,209.33275h-34.104V156.25211H299.024v42.42557h21.31014Z"/><path class="cls-6" d="M325.8179,209.33275l17.11041-53.08064h15.55474l17.03254,53.08064H361.94388l-3.46083-12.24968H342.03366l-3.46083,12.24968ZM350.04467,167.685l-5.63857,20.18183h11.78239L350.6278,167.685Z"/><path class="cls-6" d="M383.05931,209.33275V156.25211h10.11088L414.44138,187.789h.50526V156.25211h11.90018v53.08064h-10.033l-21.34908-31.84838h-.50525v31.84838Z"/><path class="cls-6" d="M460.01723,156.25211q8.28262,0,13.59117,3.16878a19.07244,19.07244,0,0,1,7.85525,9.06046,35.39784,35.39784,0,0,1,2.54671,14.0974,36.02219,36.02219,0,0,1-2.58565,14.27165,19.5139,19.5139,0,0,1-7.89419,9.25516q-5.30807,3.22719-13.51329,3.22719H439.21235V156.25211Zm-8.011,42.93082h5.989a15.2582,15.2582,0,0,0,5.83327-1.0105,9.54215,9.54215,0,0,0,4.005-3.03346,13.58944,13.58944,0,0,0,2.314-5.09438,30.07307,30.07307,0,0,0,.75837-7.15529,27.0034,27.0034,0,0,0-1.3415-9.13834,10.67643,10.67643,0,0,0-4.19972-5.54122,13.35975,13.35975,0,0,0-7.36947-1.84772h-5.989Z"/><path class="cls-6" d="M503.02593,194.16644a5.99318,5.99318,0,0,0,.87518,2.45032,6.96832,6.96832,0,0,0,1.96357,2.04145,10.04224,10.04224,0,0,0,2.95558,1.38044,13.7379,13.7379,0,0,0,3.88917.50525,12.951,12.951,0,0,0,4.91915-.79731,6.16949,6.16949,0,0,0,2.85822-2.17676,5.46124,5.46124,0,0,0,.93263-3.13081,4.30437,4.30437,0,0,0-1.983-3.81129,17.20519,17.20519,0,0,0-5.87222-2.13881l-7.50479-1.63257a23.74817,23.74817,0,0,1-7.40841-2.72291,13.51418,13.51418,0,0,1-4.93861-4.91915,14.61936,14.61936,0,0,1-1.76887-7.44637,14.87036,14.87036,0,0,1,2.62458-8.80832,16.80181,16.80181,0,0,1,7.27212-5.71645,27.08115,27.08115,0,0,1,10.79136-2.00251,25.24982,25.24982,0,0,1,11.14085,2.19721,16.60718,16.60718,0,0,1,6.82528,5.77486,14.91012,14.91012,0,0,1,2.48829,7.69949H521.26464a6.36978,6.36978,0,0,0-1.26459-2.95557,7.44034,7.44034,0,0,0-2.8777-2.21669,10.75513,10.75513,0,0,0-4.52974-.85571,9.01831,9.01831,0,0,0-5.89168,1.692,5.30293,5.30293,0,0,0-2.04145,4.25813,4.04653,4.04653,0,0,0,1.88569,3.46083,13.76521,13.76521,0,0,0,5.23067,1.983l7.69949,1.59461a25.88838,25.88838,0,0,1,7.36947,2.5282,13.68994,13.68994,0,0,1,5.22969,4.8218,14.61448,14.61448,0,0,1,1.94508,7.93313,16.133,16.133,0,0,1-2.48927,8.92417,16.43342,16.43342,0,0,1-7.33053,6.04744,29.2334,29.2334,0,0,1-11.99656,2.17774,30.78746,30.78746,0,0,1-9.60465-1.323,18.34777,18.34777,0,0,1-6.57217-3.61561,14.74151,14.74151,0,0,1-3.81129-5.19173,16.68974,16.68974,0,0,1-1.361-6.0085Z"/><path class="cls-6" d="M554.78551,185.84487a21.36334,21.36334,0,0,0,1.18573,7.58267,9.81009,9.81009,0,0,0,3.46083,4.706,9.27718,9.27718,0,0,0,5.46431,1.59363,9.464,9.464,0,0,0,4.84127-1.18573,8.295,8.295,0,0,0,3.16975-3.24666,11.0303,11.0303,0,0,0,1.28308-4.70594h12.1718v1.51672a17.119,17.119,0,0,1-2.93611,9.54722,18.76935,18.76935,0,0,1-7.642,6.37746,25.40134,25.40134,0,0,1-10.96562,2.27509,24.64807,24.64807,0,0,1-12.57969-2.99451,19.32978,19.32978,0,0,1-7.81632-8.47733,29.52359,29.52359,0,0,1-2.66449-13.02751v-5.91115a29.5657,29.5657,0,0,1,2.684-13.08495,19.43625,19.43625,0,0,1,7.83579-8.4968,24.56607,24.56607,0,0,1,12.54075-2.99451,26.67155,26.67155,0,0,1,8.51627,1.30255,20.23087,20.23087,0,0,1,6.76589,3.75289,17.61234,17.61234,0,0,1,6.26162,13.45488v1.47779h-12.1718a11.56451,11.56451,0,0,0-1.30255-4.86074,8.6199,8.6199,0,0,0-3.16975-3.36445,9.13926,9.13926,0,0,0-4.8218-1.22468,8.95851,8.95851,0,0,0-5.44484,1.653,10.35138,10.35138,0,0,0-3.46083,4.76339,21.18936,21.18936,0,0,0-1.2052,7.62161Z"/><path class="cls-6" d="M591.57251,209.33275l17.11041-53.08064h15.55474l17.03253,53.08064h-13.5717l-3.46083-12.24968h-16.4494l-3.46083,12.24968ZM615.79928,167.685l-5.63857,20.18183H621.9431L616.38241,167.685Z"/><path class="cls-6" d="M681.45961,158.75988a16.29267,16.29267,0,0,1,6.2032,6.689,20.19473,20.19473,0,0,1,2.09986,9.19675,19.89386,19.89386,0,0,1-2.11933,9.19675,15.87945,15.87945,0,0,1-6.28011,6.57217,20.15114,20.15114,0,0,1-10.30558,2.42988h-9.4888v16.48834H648.81392V156.25211h22.39949A19.32591,19.32591,0,0,1,681.45961,158.75988Zm-6.94113,9.50827a8.63045,8.63045,0,0,0-6.26064-2.21668h-6.72793v17.18829h6.72793a9.69772,9.69772,0,0,0,4.56965-1.01148,6.94074,6.94074,0,0,0,2.95461-2.9361,9.72148,9.72148,0,0,0,1.03094-4.64657A8.4617,8.4617,0,0,0,674.51848,168.26815Z"/><path class="cls-6" d="M734.09437,209.33275H698.51258V156.25211h35.58179V166.401H711.15166v11.54972h21.5428v9.333h-21.5428v11.89921h22.94271Z"/><path class="cls-7" d="M286.321,62.32525c0-5.99484,0-11.98968-.09084-17.98453h18.43867c.27248,1.72579.63583,5.63152.72664,8.26562,3.5424-5.17736,9.17393-9.90058,19.347-9.90058,9.9914,0,15.53209,5.17736,17.98451,10.62722,4.08739-5.72235,10.08224-10.62722,21.43611-10.62722,12.17134,0,22.0719,7.44814,22.0719,25.61433v45.688h-18.802V70.59086c0-6.26734-2.27077-12.44384-10.17308-12.44384-8.17478,0-11.4447,5.2682-11.4447,15.98625v39.87478H326.92231V71.31751c0-7.26648-1.81662-13.07966-9.99141-13.07966-7.81146,0-11.53554,4.81405-11.53554,16.80373v38.96647H286.32087V62.32525Z"/><path class="cls-7" d="M460.62551,96.02353a168.38933,168.38933,0,0,0,.90831,17.98453H443.09515a31.53609,31.53609,0,0,1-.99915-6.81232c-2.54325,3.90574-7.26647,8.44728-19.61948,8.44728-16.80373,0-23.88853-11.08137-23.88853-21.89026,0-15.89541,12.71633-23.16189,33.15329-23.16189h9.99141v-4.269c0-4.9957-1.81662-9.80974-10.718-9.80974-8.17479,0-9.90057,3.45158-10.80888,8.53811H401.85791c1.09-12.353,8.71978-22.43525,29.88337-22.25358,18.71118.09083,28.79342,7.44813,28.79342,23.97937V96.02353Zm-18.802-13.71547h-7.9023c-11.62635,0-15.89541,3.5424-15.89541,10.2639,0,5.08653,3.08824,9.26475,9.9914,9.26475,12.26218,0,13.80631-8.5381,13.80631-17.712Z"/><path class="cls-7" d="M541.55588,105.56078c0,22.34442-8.26559,36.514-34.69743,36.514-25.43266,0-30.42836-14.26046-31.155-22.07192h19.71032c1.36247,4.814,4.9049,8.08394,12.353,8.08394,12.53466,0,14.89629-7.62979,14.89629-21.34527v-3.36074c-3.63323,5.99485-9.44643,9.80975-19.61945,9.80975-18.34786,0-28.79342-15.07795-28.79342-33.78911,0-21.79942,13.07965-36.6957,30.51917-36.6957,11.98969,0,16.89453,5.63152,17.98451,8.90144.09081-1.90745.63583-6.08567.72664-7.26648h18.257c-.09081,6.17651-.18168,13.26132-.18168,19.98281v41.23724ZM493.96047,78.584c0,11.98969,5.99485,19.0745,14.53293,19.0745,11.62634,0,14.71462-7.99312,14.71462-19.71031S521.11892,58.147,508.85674,58.147C500.50028,58.23786,493.96047,64.68686,493.96047,78.584Z"/><path class="cls-7" d="M558.63208,62.32525c0-5.99484,0-11.98968-.09081-17.98453h18.43867c.27248,1.72579.63583,5.63152.72664,8.26562,3.54243-5.17736,9.1739-9.90058,19.347-9.90058,9.9914,0,15.53207,5.17736,17.98451,10.62722,4.08739-5.72235,10.08221-10.62722,21.43608-10.62722,12.17137,0,22.07191,7.44814,22.07191,25.61433v45.688H639.744V70.59086c0-6.26734-2.27077-12.44384-10.17307-12.44384-8.17479,0-11.44468,5.2682-11.44468,15.98625v39.87478H599.23352V71.31751c0-7.26648-1.81662-13.07966-9.9914-13.07966-7.81144,0-11.53554,4.81405-11.53554,16.80373v38.96647h-19.0745Z"/><path class="cls-7" d="M732.93667,96.02353a168.38115,168.38115,0,0,0,.90831,17.98453H715.40631a31.53613,31.53613,0,0,1-.99912-6.81232c-2.54325,3.90574-7.26647,8.44728-19.61946,8.44728-16.80372,0-23.88852-11.08137-23.88852-21.89026,0-15.89541,12.71633-23.16189,33.15329-23.16189h9.9914v-4.269c0-4.9957-1.81662-9.80974-10.718-9.80974-8.17478,0-9.90059,3.45158-10.8089,8.53811H674.1691c1.09-12.353,8.71975-22.43525,29.8834-22.25358,18.71115.09083,28.79342,7.44813,28.79342,23.97937V96.02353Zm-18.802-13.71547h-7.90231c-11.62635,0-15.89541,3.5424-15.89541,10.2639,0,5.08653,3.08827,9.26475,9.9914,9.26475,12.26218,0,13.80632-8.5381,13.80632-17.712Z"/></svg>
